<svg xmlns="http://www.w3.org/2000/svg" width="154.59" height="62.78" viewBox="0 0 154.59 62.78">
  <defs>
    <style>
      .cls-1 {
        fill: #68b0c9;
        fill-rule: evenodd;
      }
    </style>
  </defs>
  <path id="стрелка" class="cls-1" d="M928.57,2497l3.582,5.99,1.721-1.01-3.583-5.99Zm5.94,9.6,3.654,5.95,1.708-1.03-3.654-5.95Zm6.751,10.03,4.134,5.63,1.616-1.16-4.134-5.63Zm8.809,9.77,4.962,4.93,1.414-1.4-4.963-4.93Zm9.887,9.97,5.587,4.22,1.208-1.58-5.587-4.22Zm11.415,7.46,6.257,3.15,0.9-1.77-6.258-3.15Zm29.728,7.18,7,0.21,0.06-1.98-7.01-.22Zm12.48,0.18,6.99-.43-0.13-1.98-7,.43Zm14.13-2.55,6.94-.94-0.27-1.97-6.94.94Zm13.58-3.49,6.69-2.03-0.59-1.9-6.69,2.03Zm11.71-3.99,6.26-3.1-0.9-1.78-6.26,3.1Zm10.85-5.41,12.4-9.29-1.06-1.69-12.41,9.29Zm-1.34-9.73,11.97,1.01,0.17-1.98-11.97-1.01Zm10.03,11.99,4.05-12.85-1.79-.88-4.06,12.85Zm-144.4-49.45a4.963,4.963,0,1,1-6.014,3.68A4.989,4.989,0,0,1,928.144,2488.56Zm-0.456,1.93a2.98,2.98,0,1,1-3.609,2.21A3,3,0,0,1,927.688,2490.49Zm57.514,58.42,7.933,1.29,0.055-1.99-7.933-1.28Z" transform="translate(-922 -2488.44)"/>
</svg>
