<svg xmlns="http://www.w3.org/2000/svg" width="79.25" height="94" viewBox="0 0 79.25 94">
  <defs>
    <style>
      .cls-1 {
        fill: #ecf2f7;
        fill-rule: evenodd;
        opacity: 0.79;
      }
    </style>
  </defs>
  <path id="иконка" class="cls-1" d="M1309,2695h21a7.621,7.621,0,0,1,5,2c2.91,3,4.81,8.78,2,12-2.26,2.59-8,2-8,2v3s6.74-.59,12,2c5.09,2.51,8.95,10.06,12,29a38.971,38.971,0,0,1-2,19s6.62-1.25,8,5c0.85,3.84-.51,11.19-4,15-4.57,4.98-12,5-12,5h-50s-5.25-1.5-8-5c-3.43-4.38-5.2-11.15-5-14,0.56-7.85,9-6,9-6s-3.16-9.95-1-20c4.48-20.82,6.04-25.63,12-28a35.887,35.887,0,0,1,11-2v-3s-5.55,1.01-8-3c-1.67-2.73-.06-7.31,2-10A8.729,8.729,0,0,1,1309,2695Zm1,3h21s4.43,2.47,4,6-2,4-2,4h-25s-3.33-.88-2-5S1310,2698,1310,2698Zm4,13h12v3h-12v-3Zm-15,62v13h-4s-3.6.38-7-4-5.15-10.41-4-13a4.149,4.149,0,0,1,7-1,42.234,42.234,0,0,0,5,5h3Zm43,0v13h4s5.89-1.87,8-7,3.4-11.78-1-12-5.03,2.76-7,4A24.876,24.876,0,0,1,1342,2773Zm-40,13h37v-13a12.857,12.857,0,0,0-2-1c-1.33-.53-3-1-3-1v7a2.824,2.824,0,0,1-2,1,0.813,0.813,0,0,1-1-1v-7h-3v7a2.221,2.221,0,0,1-2,1,2.53,2.53,0,0,1-2-1v-7h-2v7a2.728,2.728,0,0,1-2,1,2.126,2.126,0,0,1-2-1v-7h-2v7a2.586,2.586,0,0,1-2,1,2.354,2.354,0,0,1-2-1v-7h-2v7a3.1,3.1,0,0,1-2,1,2.218,2.218,0,0,1-2-1v-6c0-1.25-4-.52-4,0v14Zm40-16s6.5-2.91,7-10,1.76-13.21-1-22-3.51-18.8-10-20-30.05-2.14-35,0c-5.38,2.33-8.23,9.62-10,16-3.51,12.66-1.86,27.04-1,29a14.25,14.25,0,0,0,6,7s15.78-2.14,23-2S1342,2770,1342,2770Zm-41-5s0.35,2.14,2,2,2-3,2-3-1.25-34.09,3-36,23.43-2.2,25,1,2,35,2,35,0.23,2.17,2,2a2.315,2.315,0,0,0,2-2s-1.27-34.59-3-37-8.6-4.1-16-4-13.12.72-15,3c-3.61,4.38-3.97,28.9-4,33S1301,2765,1301,2765Z" transform="translate(-1280 -2695)"/>
</svg>
