<svg xmlns="http://www.w3.org/2000/svg" width="198.72" height="52.375" viewBox="0 0 198.72 52.375">
  <defs>
    <style>
      .cls-1 {
        fill: #68b0c9;
        fill-rule: evenodd;
      }
    </style>
  </defs>
  <path id="стрелка" class="cls-1" d="M876.351,918.826l4.857-5.041,1.44,1.388-4.856,5.041Zm7.979-8.038,4.917-4.982,1.423,1.4-4.917,4.982Zm8.863-8.267,5.31-4.561,1.3,1.518-5.311,4.56Zm10.8-7.532,5.954-3.68,1.052,1.7-5.954,3.68Zm11.9-7.484,6.4-2.839,0.811,1.828-6.4,2.839Zm12.968-5.657,6.8-1.641,0.469,1.944-6.8,1.641Zm14.03-4.338,6.928-1,0.286,1.98-6.928,1Zm16.022-2.139,6.961-.732,0.209,1.989-6.961.732Zm13.152-.581,6.987,0.423-0.121,2-6.987-.423Zm15.2,1.537,6.862,1.385-0.4,1.96-6.862-1.385Zm13,2.989,6.86,1.408-0.4,1.959-6.86-1.408Zm12.17,2.7,6.7,2.043-0.58,1.913-6.7-2.043Zm13.16,5.783,6.53,2.525-0.73,1.866-6.53-2.525Zm12.39,6.561,6.03,3.545-1.01,1.724-6.03-3.545Zm10.47,6.622,5.37,4.49-1.29,1.534-5.37-4.489Zm9.29,7.82,9.92,11.978-1.42,1.406-9.92-11.977Zm-2.54,9.395,10.88,1.617-0.3,1.978-10.88-1.617Zm10.03-6.787,2.47,10.72-1.95.449-2.47-10.721ZM874,917a5,5,0,1,1-5,5A5,5,0,0,1,874,917Zm0,2a3,3,0,1,1-3,3A3,3,0,0,1,874,919Z" transform="translate(-869 -874.625)"/>
</svg>
