<?xml version="1.0" standalone="no"?>
<!DOCTYPE svg PUBLIC "-//W3C//DTD SVG 20010904//EN"
 "http://www.w3.org/TR/2001/REC-SVG-20010904/DTD/svg10.dtd">
<svg version="1.0" xmlns="http://www.w3.org/2000/svg"
 width="700.000000pt" height="700.000000pt" viewBox="0 0 700.000000 700.000000"
 preserveAspectRatio="xMidYMid meet">
<metadata>
Created by potrace 1.11, written by Peter Selinger 2001-2013
</metadata>
<g transform="translate(0.000000,700.000000) scale(0.100000,-0.100000)"
fill="#000000" stroke="none">
<path d="M360 6989 c-124 -35 -221 -127 -262 -250 -25 -75 -16 -163 45 -409
31 -124 70 -283 87 -355 54 -222 160 -659 167 -685 3 -14 7 -29 9 -35 9 -37
44 -185 48 -205 2 -14 20 -97 40 -185 20 -88 38 -169 40 -180 3 -11 34 -153
71 -315 36 -162 77 -347 91 -410 13 -63 27 -121 29 -129 3 -8 8 -30 11 -50 3
-20 12 -61 19 -91 8 -30 30 -128 49 -216 20 -89 38 -168 40 -175 3 -8 7 -27
10 -44 3 -16 10 -48 15 -70 11 -49 46 -210 73 -330 10 -49 21 -97 23 -105 15
-59 57 -251 61 -280 3 -19 8 -38 10 -42 2 -3 13 -48 24 -100 11 -51 27 -124
36 -163 8 -38 18 -81 20 -94 11 -55 47 -91 95 -95 l33 -2 24 -111 25 -111 -36
-59 c-81 -133 -105 -301 -67 -455 32 -128 122 -502 126 -523 2 -11 21 -93 43
-181 22 -89 42 -173 45 -186 15 -83 52 -194 77 -228 40 -56 101 -97 162 -110
38 -8 620 -10 2092 -8 l2040 3 65 24 c127 47 243 148 300 261 29 57 64 175 57
188 -3 4 -1 16 3 28 8 19 16 21 152 22 174 1 195 4 283 47 139 67 237 194 271
350 16 75 10 254 -11 362 -73 355 -298 658 -600 808 -226 111 -394 130 -722
81 -21 -3 -63 -8 -93 -12 -30 -3 -57 -7 -60 -9 -3 -1 -36 -6 -73 -10 -37 -3
-76 -8 -86 -10 -10 -2 -62 -9 -116 -15 -54 -6 -105 -13 -114 -15 -9 -2 -44 -6
-76 -10 -33 -4 -71 -8 -85 -11 -61 -9 -98 -14 -142 -18 -26 -3 -76 -10 -110
-15 -35 -5 -88 -12 -118 -15 -30 -4 -66 -8 -80 -11 -49 -8 -219 -30 -310 -40
-30 -3 -62 -8 -70 -10 -8 -2 -40 -7 -70 -10 -95 -12 -114 -14 -150 -19 -19 -3
-53 -8 -75 -10 -46 -6 -191 -24 -250 -32 -22 -3 -67 -9 -100 -14 -33 -5 -85
-12 -115 -15 -30 -3 -66 -8 -80 -10 -71 -10 -110 -15 -155 -20 -27 -3 -57 -7
-65 -10 -8 -2 -42 -7 -74 -10 -56 -5 -100 -11 -156 -20 -14 -3 -51 -7 -82 -11
l-58 -7 -1 29 c0 16 -2 45 -4 64 -14 127 -37 352 -40 385 -6 63 -16 157 -20
190 -2 17 -6 62 -10 100 -3 39 -8 84 -10 100 -2 17 -7 62 -10 100 -4 39 -8 81
-10 95 -2 14 -7 57 -10 95 -3 39 -8 86 -10 105 -2 19 -7 62 -10 95 -3 33 -8
71 -10 85 -2 14 -7 45 -10 70 -3 25 -13 88 -21 140 -8 52 -17 111 -20 130 -14
94 -98 463 -138 606 -48 172 -145 473 -191 589 -94 241 -170 427 -192 470 -80
157 -227 306 -373 380 -19 10 -36 19 -38 20 -1 1 10 42 27 91 60 185 56 403
-12 571 -137 338 -459 602 -827 678 -93 19 -263 27 -310 14z"/>
</g>
</svg>
